<svg width="365" height="303" viewBox="0 0 365 303" fill="none" xmlns="http://www.w3.org/2000/svg">
<g opacity="0.7" clip-path="url(#clip0_28_3871)">
<path d="M365 0H0V365H365V0Z" fill="white"/>
<path d="M294.747 141.723L261.283 107.797L261.72 107.366L295.183 141.29L294.747 141.723Z" fill="#DDD6FE"/>
<path d="M294.623 141.042L314.003 97.5099L314.564 97.7586L295.183 141.29L294.623 141.042Z" fill="#DDD6FE"/>
<path d="M56.1624 166.449L75.5422 122.915L76.1033 123.164L56.7221 166.697L56.1624 166.449Z" fill="#DDD6FE"/>
<path d="M295.183 150.689C300.134 150.689 304.149 146.674 304.149 141.723C304.149 136.771 300.134 132.756 295.183 132.756C290.231 132.756 286.216 136.771 286.216 141.723C286.216 146.674 290.231 150.689 295.183 150.689Z" fill="#DDD6FE"/>
<path d="M295.183 147.209C298.213 147.209 300.669 144.753 300.669 141.723C300.669 138.692 298.213 136.236 295.183 136.236C292.152 136.236 289.696 138.692 289.696 141.723C289.696 144.753 292.152 147.209 295.183 147.209Z" fill="#A78BFA"/>
<path d="M313.983 101.455C315.58 101.455 316.874 100.161 316.874 98.5643C316.874 96.9676 315.58 95.6732 313.983 95.6732C312.387 95.6732 311.092 96.9676 311.092 98.5643C311.092 100.161 312.387 101.455 313.983 101.455Z" fill="#DDD6FE"/>
<path d="M313.983 100.333C314.96 100.333 315.752 99.5413 315.752 98.5643C315.752 97.5873 314.96 96.7953 313.983 96.7953C313.006 96.7953 312.214 97.5873 312.214 98.5643C312.214 99.5413 313.006 100.333 313.983 100.333Z" fill="#A78BFA"/>
<path d="M56.1623 169.006C57.7591 169.006 59.0534 167.712 59.0534 166.115C59.0534 164.519 57.7591 163.224 56.1623 163.224C54.5656 163.224 53.2712 164.519 53.2712 166.115C53.2712 167.712 54.5656 169.006 56.1623 169.006Z" fill="#DDD6FE"/>
<path d="M56.1623 167.884C57.1393 167.884 57.9314 167.092 57.9314 166.115C57.9314 165.138 57.1393 164.346 56.1623 164.346C55.1853 164.346 54.3933 165.138 54.3933 166.115C54.3933 167.092 55.1853 167.884 56.1623 167.884Z" fill="#A78BFA"/>
<path d="M293.171 66.0007H237.966V72.9831H293.171V66.0007Z" fill="#EDE9FE"/>
<path d="M273.861 75.6919H237.966V82.6743H273.861V75.6919Z" fill="#DDD6FE"/>
<path d="M293.171 85.3819H237.966V92.3643H293.171V85.3819Z" fill="#DDD6FE"/>
<path d="M251.512 95.0731H237.966V102.056H251.512V95.0731Z" fill="#EDE9FE"/>
<path d="M84.2168 300.147C84.2168 300.147 108.709 294.439 100.821 267.062C92.9344 239.684 69.0766 209.646 87.3878 174.386C105.699 139.126 149.492 89.3143 191.106 96.4751C232.72 103.636 198.266 147.845 205.842 156.25C213.418 164.656 280.156 150.646 296.443 179.287C312.731 207.929 275.614 241.257 276.582 263.664C277.551 286.072 309.306 301.018 309.306 301.018L84.2168 300.147Z" fill="#FBFBFB"/>
<path d="M148.946 203.499L152.644 246.531L155.243 292.935H164.245L166.744 214.029H168.059L183.545 292.935H191.846L189.845 257.332L188.665 202.973L185.845 200.629L160.744 201.329L148.946 203.499Z" fill="#2F333D"/>
<path d="M148.946 203.499L188.804 209.427L188.665 202.973L185.245 199.128H156.044L148.946 203.499Z" fill="#23262D"/>
<path d="M168.059 214.029L163.143 209.427L166.744 214.029H168.059Z" fill="#23262D"/>
<path d="M153.943 290.633L154.844 293.734H164.944L165.445 289.934L153.943 290.633Z" fill="#454C59"/>
<path d="M181.446 289.934L182.745 293.734H192.246L192.946 289.934H181.446Z" fill="#454C59"/>
<path d="M156.544 293.734C156.544 293.734 155.243 295.118 153.944 295.876C152.644 296.634 145.344 297.535 145.844 301.834H163.945C163.945 301.834 163.745 297.418 163.945 295.876C164.146 294.334 163.945 293.734 163.945 293.734H156.544Z" fill="#24243D"/>
<path d="M191.328 293.734C191.328 293.734 192.629 295.118 193.928 295.876C195.228 296.634 202.528 297.535 202.028 301.834H183.927C183.927 301.834 184.127 297.418 183.927 295.876C183.726 294.334 183.927 293.734 183.927 293.734H191.328Z" fill="#24243D"/>
<path d="M164.34 289.934L164.495 285.035L154.926 290.575L164.34 289.934Z" fill="#23262D"/>
<path d="M182.957 289.934L182.174 285.947L191.846 289.934H182.957Z" fill="#23262D"/>
<path d="M185.487 165.696L189.404 203.217L147.697 203.862C147.697 203.862 148.769 199.489 148.016 197.992C147.272 196.504 148.556 194.476 148.556 194.476L149.358 165.695L139.899 164.583C139.899 164.583 142.074 152.049 145.376 146.906C150.365 139.122 160.405 139.441 160.405 139.441H165.082L174.476 139.653C174.738 139.653 174.999 139.661 175.253 139.685C193.07 140.6 194.247 164.68 194.247 164.68L185.487 165.696Z" fill="#D6D6D6"/>
<path d="M161.22 148.356H173.974C174.584 148.356 175.08 148.851 175.08 149.463V167.647C175.08 168.258 174.584 168.754 173.974 168.754H161.22C160.608 168.754 160.113 168.258 160.113 167.647V149.463C160.113 148.851 160.608 148.356 161.22 148.356Z" fill="#ABABAB" stroke="#8F8F8F"/>
<path d="M148.739 187.048L157.67 166.505L148.739 179.147V187.048Z" fill="#B5B5B5"/>
<path d="M177.456 166.389L187.716 187.048L186.927 177.242L177.456 166.389Z" fill="#CBCBCB"/>
<path d="M149.354 165.696L151.769 154.041L151.045 165.696L149.292 167.435L149.354 165.696Z" fill="#B5B5B5"/>
<path d="M185.489 165.696L182.745 155.26L183.215 165.251L185.549 167.435L185.489 165.696Z" fill="#B5B5B5"/>
<path d="M140.771 164.686L149.354 165.698L149.293 167.435L156.601 160.738C156.601 160.738 156.235 156.841 156.602 156.243C156.969 155.647 158.025 153.948 159.081 153.719C160.137 153.49 163.624 155.72 163.624 155.72C163.624 155.72 163.302 156.886 162.201 157.024C161.1 157.162 159.953 157.07 159.953 157.07L159.707 161.93C159.707 161.93 154.011 176.53 146.278 182.484C146.277 182.484 139.899 176.48 140.771 164.686Z" fill="#FFA895"/>
<path d="M149.292 167.435L142.238 175.792C142.238 175.792 139.898 169.785 140.77 164.686L149.353 165.698L149.292 167.435Z" fill="#FF807D"/>
<path d="M159.952 157.07L157.887 156.657L159.884 158.404L159.952 157.07Z" fill="#FF807D"/>
<path d="M193.894 164.686L185.489 165.698L185.549 167.435L178.392 160.738C178.392 160.738 178.751 156.841 178.39 156.243C178.031 155.647 176.998 153.948 175.964 153.719C174.93 153.49 171.515 155.72 171.515 155.72C171.515 155.72 171.83 156.886 172.908 157.024C173.987 157.162 175.11 157.07 175.11 157.07L175.351 161.93C175.351 161.93 181.06 176.943 188.502 182.484C188.502 182.484 194.748 176.48 193.894 164.686Z" fill="#FFA895"/>
<path d="M185.549 167.435L192.457 175.792C192.457 175.792 194.551 170.239 193.895 164.686L185.49 165.698L185.549 167.435Z" fill="#FF807D"/>
<path d="M175.11 157.07L177.132 156.657L175.176 158.404L175.11 157.07Z" fill="#FF807D"/>
<path d="M331.075 301.834H48.5616C48.1099 301.834 47.7441 301.469 47.7441 301.017C47.7441 300.565 48.1099 300.199 48.5616 300.199H331.076C331.528 300.199 331.894 300.565 331.894 301.017C331.894 301.469 331.528 301.834 331.075 301.834Z" fill="#E2CDC5"/>
<path d="M159.836 122.573L158.081 120.921C158.081 120.921 155.052 117.931 156.119 113.487C157.482 107.808 166.754 108.118 170.575 111.628C170.575 111.628 175.475 110.437 178.431 114.417C181.977 119.19 180.679 131.558 172.331 133.107C163.089 134.82 159.836 122.573 159.836 122.573Z" fill="#5A2E2B"/>
<path d="M176.667 123.605C175.635 123.398 174.498 125.774 174.498 125.774C174.498 125.774 171.503 123.272 173.97 119.786C173.97 119.786 169.026 122.056 164.689 117.616C164.689 117.616 162.623 121.392 158.08 120.92C158.08 120.92 156.634 129.49 158.802 132.794C160.971 136.098 164.068 134.963 164.068 134.963L163.321 139.442H160.932C160.932 139.442 161.463 144.805 167.595 144.805C172.313 144.805 174.496 141.297 175.248 139.687C174.994 139.662 174.733 139.654 174.471 139.654L173.04 139.622L172.327 133.104C172.327 133.104 171.914 130.625 173.566 129.078C173.566 129.078 176.148 130.214 177.697 127.529C179.248 124.845 177.699 123.812 176.667 123.605Z" fill="#FFA895"/>
<path d="M164.07 134.963L170.058 133.001L163.47 138.563L164.07 134.963Z" fill="#FF807D"/>
<path d="M157.609 127.941C157.609 127.941 156.514 134.308 160.765 135.782C165.017 137.256 170.749 133.828 172.124 131.861C173.538 129.837 175.398 123.379 175.118 123.27H173.363L172.124 128.617C172.124 128.62 163.47 127.317 157.609 127.941Z" fill="#5A2E2B"/>
<path d="M167.55 124.312C167.524 125.087 168.126 125.735 168.896 125.761C169.665 125.787 170.309 125.18 170.335 124.406C170.361 123.631 169.759 122.983 168.989 122.957C168.22 122.931 167.576 123.538 167.55 124.312Z" fill="#24243D"/>
<path d="M159.702 124.312C159.676 125.087 160.278 125.735 161.048 125.761C161.817 125.787 162.461 125.18 162.487 124.406C162.513 123.631 161.911 122.983 161.141 122.957C160.372 122.931 159.728 123.538 159.702 124.312Z" fill="#24243D"/>
<path d="M164.86 127.905C164.844 127.905 164.825 127.902 164.808 127.9C163.837 127.711 163.246 127.301 163.052 126.683C162.644 125.382 164.247 123.702 164.316 123.63C164.42 123.523 164.592 123.521 164.698 123.624C164.806 123.728 164.808 123.898 164.704 124.006C164.299 124.425 163.308 125.696 163.568 126.521C163.699 126.935 164.151 127.22 164.911 127.37C165.058 127.399 165.153 127.54 165.125 127.686C165.1 127.815 164.987 127.905 164.86 127.905Z" fill="#FF807D"/>
<path d="M170.615 121.119C170.605 121.119 170.594 121.118 170.584 121.116L167.711 120.786C167.563 120.769 167.456 120.635 167.473 120.486C167.49 120.338 167.627 120.237 167.772 120.248L170.645 120.579C170.794 120.596 170.9 120.73 170.883 120.878C170.867 121.018 170.749 121.119 170.615 121.119Z" fill="#472322"/>
<path d="M159.875 121.325C159.758 121.318 159.654 121.235 159.626 121.115C159.592 120.969 159.684 120.825 159.829 120.791L161.916 120.313C162.06 120.278 162.206 120.371 162.24 120.516C162.274 120.662 162.183 120.807 162.037 120.841L159.95 121.318C159.924 121.323 159.9 121.326 159.875 121.325Z" fill="#472322"/>
<path d="M161.925 129.697L167.47 129.412C167.47 129.412 164.88 132.795 161.925 129.697Z" fill="white"/>
<path d="M321.102 235.956L320.964 243.341L319.141 237.51C309.19 244.667 307.85 256.075 307.962 262.413C307.86 265.989 308.567 285.035 308.567 285.035H310.237C309.297 272.718 311.837 262.333 311.837 262.333C313.394 260.357 315.055 258.388 316.761 256.461C317.12 256.055 317.482 255.651 317.847 255.247C320.583 252.218 323.409 249.308 326.126 246.634C334.536 238.355 341.852 232.37 341.852 232.37C329.008 230.424 321.102 235.956 321.102 235.956Z" fill="#B97D47"/>
<path d="M308.99 272.053C309.102 265.715 307.762 254.305 297.812 247.15L295.988 252.98L295.852 245.595C295.852 245.595 287.946 240.064 275.101 242.012C275.101 242.012 282.417 247.997 290.827 256.275C293.544 258.948 296.37 261.859 299.106 264.888C299.469 265.29 299.831 265.694 300.192 266.101C301.898 268.03 303.559 269.997 305.116 271.973C305.116 271.973 307.656 282.358 306.716 294.675H308.386C308.385 294.674 309.09 275.628 308.99 272.053Z" fill="#F7A75E"/>
<path d="M322.763 251.939L322.627 259.323L320.803 253.493C310.853 260.65 309.512 272.058 309.624 278.396C309.522 281.972 310.229 301.017 310.229 301.017H311.899C310.959 288.7 313.499 278.315 313.499 278.315C315.056 276.339 316.717 274.372 318.423 272.443C318.783 272.037 319.145 271.633 319.509 271.23C322.245 268.201 325.071 265.29 327.787 262.616C336.197 254.338 343.513 248.352 343.513 248.352C330.669 246.408 322.763 251.939 322.763 251.939Z" fill="#F7A75E"/>
<path d="M320.832 278.069H310.185H307.805H297.159C296.836 292.28 303.671 300.999 303.671 300.999H307.804H310.184H314.316C314.319 300.999 321.154 292.28 320.832 278.069Z" fill="#323254"/>
<path d="M187.474 93.6412L187.564 93.7844L215.332 138.429L215.334 138.485L218.221 199.506L180.18 205.639L180.127 205.62L126.576 185.804L126.541 185.765L102.322 158.535L123.912 114.79L123.997 114.763L187.474 93.6412ZM214.909 138.561L187.29 94.1515L124.216 115.14L102.833 158.468L126.823 185.439L180.222 205.199L217.775 199.145L214.909 138.561Z" fill="#DDD6FE"/>
<path d="M218.725 62.0526L218.767 62.0969L261.706 107.49L261.714 107.563L267.705 170.048L267.662 170.112L236.725 215.483L236.68 215.507L181.233 245.334L181.145 245.302L100.349 217.372L100.311 217.288L81.7773 176.935L75.6515 123.309L75.6905 123.246L108.953 69.2302L109.022 69.2055L166.201 48.1503L166.266 48.1672L218.725 62.0526ZM261.296 107.675L218.499 62.434L166.222 48.5981L109.24 69.5804L76.0928 123.407L82.1978 176.853L100.661 217.027L181.194 244.866L236.43 215.153L267.263 169.933L261.296 107.675Z" fill="#DDD6FE"/>
<path d="M166.398 48.2797L166.01 48.4603L187.181 93.9806L187.57 93.8L166.398 48.2797Z" fill="#DDD6FE"/>
<path d="M218.211 62.7126L237.953 116.203L237.737 172.827L267.356 170.084L267.375 170.298L237.735 173.043L237.573 215.657L237.4 215.514L217.837 199.368L217.899 199.286L237.523 172.909L237.741 116.221L218.011 62.7868L218.211 62.7126ZM237.362 215.204L237.522 173.268L218.13 199.331L237.362 215.204Z" fill="#DDD6FE"/>
<path d="M267.366 174.263C269.616 174.263 271.439 172.439 271.439 170.19C271.439 167.94 269.616 166.117 267.366 166.117C265.117 166.117 263.293 167.94 263.293 170.19C263.293 172.439 265.117 174.263 267.366 174.263Z" fill="#DDD6FE"/>
<path d="M267.366 172.682C268.743 172.682 269.859 171.566 269.859 170.19C269.859 168.813 268.743 167.697 267.366 167.697C265.99 167.697 264.874 168.813 264.874 170.19C264.874 171.566 265.99 172.682 267.366 172.682Z" fill="#A78BFA"/>
<path d="M214.931 145.072C218.536 145.072 221.459 142.149 221.459 138.544C221.459 134.938 218.536 132.016 214.931 132.016C211.325 132.016 208.403 134.938 208.403 138.544C208.403 142.149 211.325 145.072 214.931 145.072Z" fill="#DDD6FE"/>
<path d="M214.931 142.539C217.137 142.539 218.926 140.75 218.926 138.544C218.926 136.337 217.137 134.549 214.931 134.549C212.724 134.549 210.936 136.337 210.936 138.544C210.936 140.75 212.724 142.539 214.931 142.539Z" fill="#A78BFA"/>
<path d="M187.659 96.5024C189.008 96.5024 190.102 95.4085 190.102 94.0591C190.102 92.7097 189.008 91.6158 187.659 91.6158C186.309 91.6158 185.215 92.7097 185.215 94.0591C185.215 95.4085 186.309 96.5024 187.659 96.5024Z" fill="#DDD6FE"/>
<path d="M187.659 95.5534C188.484 95.5534 189.153 94.8844 189.153 94.0591C189.153 93.2338 188.484 92.5647 187.659 92.5647C186.833 92.5647 186.164 93.2338 186.164 94.0591C186.164 94.8844 186.833 95.5534 187.659 95.5534Z" fill="#A78BFA"/>
<path d="M100.483 219.651C101.845 219.651 102.948 218.547 102.948 217.185C102.948 215.824 101.845 214.72 100.483 214.72C99.1213 214.72 98.0175 215.824 98.0175 217.185C98.0175 218.547 99.1213 219.651 100.483 219.651Z" fill="#EDE9FE"/>
<path d="M100.483 218.694C101.316 218.694 101.992 218.019 101.992 217.185C101.992 216.352 101.316 215.677 100.483 215.677C99.6497 215.677 98.9742 216.352 98.9742 217.185C98.9742 218.019 99.6497 218.694 100.483 218.694Z" fill="#A78BFA"/>
<path d="M218.087 62.6449L218.134 62.8545L177.151 72.0133L109.648 69.8681L109.655 69.6546L177.145 71.7985L218.087 62.6449Z" fill="#DDD6FE"/>
<path d="M109.651 73.5259C111.73 73.5259 113.415 71.8404 113.415 69.7613C113.415 67.6822 111.73 65.9968 109.651 65.9968C107.572 65.9968 105.886 67.6822 105.886 69.7613C105.886 71.8404 107.572 73.5259 109.651 73.5259Z" fill="#EDE9FE"/>
<path d="M109.651 72.0654C110.923 72.0654 111.955 71.0338 111.955 69.7613C111.955 68.4889 110.923 67.4573 109.651 67.4573C108.378 67.4573 107.347 68.4889 107.347 69.7613C107.347 71.0338 108.378 72.0654 109.651 72.0654Z" fill="#A78BFA"/>
<path d="M218.111 68.0613C221.044 68.0613 223.422 65.6835 223.422 62.7503C223.422 59.8171 221.044 57.4393 218.111 57.4393C215.178 57.4393 212.8 59.8171 212.8 62.7503C212.8 65.6835 215.178 68.0613 218.111 68.0613Z" fill="#EDE9FE"/>
<path d="M218.111 66.0007C219.906 66.0007 221.361 64.5454 221.361 62.7503C221.361 60.9552 219.906 59.4999 218.111 59.4999C216.316 59.4999 214.86 60.9552 214.86 62.7503C214.86 64.5454 216.316 66.0007 218.111 66.0007Z" fill="#A78BFA"/>
<path d="M177.087 71.8233L177.223 71.9886L123.719 115.731L123.69 115.737L76.0655 123.436L102.662 158.437L102.493 158.565L75.6802 123.281L75.8559 123.253L123.629 115.53L177.087 71.8233Z" fill="#DDD6FE"/>
<path d="M167.472 48.96L167.564 49.0485L237.966 116.166L237.95 116.227L218.087 199.374L217.88 199.323L237.729 116.236L167.509 49.2919L123.763 115.69L123.584 115.571L167.472 48.96Z" fill="#DDD6FE"/>
<path d="M261.412 107.557L237.537 172.917L237.738 172.99L261.612 107.63L261.412 107.557Z" fill="#DDD6FE"/>
<path d="M237.121 216.673L237.078 216.882L180.18 205.523L114.599 200.56L114.574 200.542L81.927 176.998L82.052 176.825L114.674 200.35L180.209 205.311L237.121 216.673Z" fill="#DDD6FE"/>
<path d="M103.12 158.813L116.014 201.143L181.272 245.011L181.153 245.188L115.831 201.278L115.82 201.242L102.916 158.874L103.12 158.813Z" fill="#DDD6FE"/>
<path d="M237.505 174.054C238.073 174.054 238.533 173.594 238.533 173.026C238.533 172.458 238.073 171.998 237.505 171.998C236.937 171.998 236.477 172.458 236.477 173.026C236.477 173.594 236.937 174.054 237.505 174.054Z" fill="#DDD6FE"/>
<path d="M237.954 117.292C238.522 117.292 238.982 116.832 238.982 116.264C238.982 115.696 238.522 115.235 237.954 115.235C237.386 115.235 236.926 115.696 236.926 116.264C236.926 116.832 237.386 117.292 237.954 117.292Z" fill="#DDD6FE"/>
<path d="M153.187 72.4871C154.025 72.4871 154.704 71.8076 154.704 70.9693C154.704 70.1311 154.025 69.4515 153.187 69.4515C152.348 69.4515 151.669 70.1311 151.669 70.9693C151.669 71.8076 152.348 72.4871 153.187 72.4871Z" fill="#DDD6FE"/>
<path d="M180.201 207.338C181.261 207.338 182.121 206.478 182.121 205.418C182.121 204.358 181.261 203.498 180.201 203.498C179.141 203.498 178.281 204.358 178.281 205.418C178.281 206.478 179.141 207.338 180.201 207.338Z" fill="#DDD6FE"/>
<path d="M126.856 187.631C127.916 187.631 128.776 186.772 128.776 185.711C128.776 184.651 127.916 183.791 126.856 183.791C125.795 183.791 124.936 184.651 124.936 185.711C124.936 186.772 125.795 187.631 126.856 187.631Z" fill="#DDD6FE"/>
<path d="M115.204 204.482C117.244 204.482 118.897 202.829 118.897 200.789C118.897 198.749 117.244 197.096 115.204 197.096C113.165 197.096 111.511 198.749 111.511 200.789C111.511 202.829 113.165 204.482 115.204 204.482Z" fill="#DDD6FE"/>
<path d="M188.46 70.3809C189.054 70.3809 189.534 69.9001 189.534 69.307C189.534 68.7139 189.054 68.2331 188.46 68.2331C187.867 68.2331 187.387 68.7139 187.387 69.307C187.387 69.9001 187.867 70.3809 188.46 70.3809Z" fill="#DDD6FE"/>
<path d="M177.1 73.0716C177.694 73.0716 178.174 72.5908 178.174 71.9977C178.174 71.4046 177.694 70.9238 177.1 70.9238C176.507 70.9238 176.026 71.4046 176.026 71.9977C176.026 72.5908 176.507 73.0716 177.1 73.0716Z" fill="#DDD6FE"/>
<path d="M103.019 165.371C106.624 165.371 109.547 162.448 109.547 158.843C109.547 155.237 106.624 152.315 103.019 152.315C99.4133 152.315 96.4906 155.237 96.4906 158.843C96.4906 162.448 99.4133 165.371 103.019 165.371Z" fill="#EDE9FE"/>
<path d="M103.019 162.838C105.225 162.838 107.014 161.049 107.014 158.843C107.014 156.636 105.225 154.848 103.019 154.848C100.812 154.848 99.0237 156.636 99.0237 158.843C99.0237 161.049 100.812 162.838 103.019 162.838Z" fill="#A78BFA"/>
<path d="M123.674 118.073C125.024 118.073 126.118 116.979 126.118 115.63C126.118 114.28 125.024 113.186 123.674 113.186C122.325 113.186 121.231 114.28 121.231 115.63C121.231 116.979 122.325 118.073 123.674 118.073Z" fill="#DDD6FE"/>
<path d="M123.674 117.124C124.5 117.124 125.169 116.455 125.169 115.63C125.169 114.804 124.5 114.135 123.674 114.135C122.849 114.135 122.18 114.804 122.18 115.63C122.18 116.455 122.849 117.124 123.674 117.124Z" fill="#A78BFA"/>
<path d="M75.5838 127.845C77.7902 127.845 79.5788 126.056 79.5788 123.85C79.5788 121.644 77.7902 119.855 75.5838 119.855C73.3775 119.855 71.5889 121.644 71.5889 123.85C71.5889 126.056 73.3775 127.845 75.5838 127.845Z" fill="#DDD6FE"/>
<path d="M75.5838 126.295C76.9339 126.295 78.0284 125.2 78.0284 123.85C78.0284 122.5 76.9339 121.405 75.5838 121.405C74.2337 121.405 73.1392 122.5 73.1392 123.85C73.1392 125.2 74.2337 126.295 75.5838 126.295Z" fill="#A78BFA"/>
<path d="M167.491 52.3991C169.299 52.3991 170.765 50.9334 170.765 49.1253C170.765 47.3172 169.299 45.8515 167.491 45.8515C165.683 45.8515 164.217 47.3172 164.217 49.1253C164.217 50.9334 165.683 52.3991 167.491 52.3991Z" fill="#DDD6FE"/>
<path d="M167.491 51.1286C168.598 51.1286 169.495 50.2317 169.495 49.1253C169.495 48.0189 168.598 47.122 167.491 47.122C166.385 47.122 165.488 48.0189 165.488 49.1253C165.488 50.2317 166.385 51.1286 167.491 51.1286Z" fill="#A78BFA"/>
<path d="M261.501 109.552C262.589 109.552 263.47 108.67 263.47 107.583C263.47 106.495 262.589 105.613 261.501 105.613C260.413 105.613 259.531 106.495 259.531 107.583C259.531 108.67 260.413 109.552 261.501 109.552Z" fill="#DDD6FE"/>
<path d="M261.501 108.788C262.167 108.788 262.706 108.248 262.706 107.583C262.706 106.917 262.167 106.377 261.501 106.377C260.835 106.377 260.295 106.917 260.295 107.583C260.295 108.248 260.835 108.788 261.501 108.788Z" fill="#A78BFA"/>
<path d="M217.983 205.876C221.589 205.876 224.511 202.953 224.511 199.348C224.511 195.743 221.589 192.82 217.983 192.82C214.378 192.82 211.455 195.743 211.455 199.348C211.455 202.953 214.378 205.876 217.983 205.876Z" fill="#EDE9FE"/>
<path d="M217.983 203.343C220.19 203.343 221.978 201.554 221.978 199.348C221.978 197.142 220.19 195.353 217.983 195.353C215.777 195.353 213.988 197.142 213.988 199.348C213.988 201.554 215.777 203.343 217.983 203.343Z" fill="#A78BFA"/>
<path d="M237.467 219.426C239.674 219.426 241.462 217.637 241.462 215.431C241.462 213.224 239.674 211.436 237.467 211.436C235.261 211.436 233.472 213.224 233.472 215.431C233.472 217.637 235.261 219.426 237.467 219.426Z" fill="#DDD6FE"/>
<path d="M237.467 217.875C238.817 217.875 239.912 216.781 239.912 215.431C239.912 214.081 238.817 212.986 237.467 212.986C236.117 212.986 235.023 214.081 235.023 215.431C235.023 216.781 236.117 217.875 237.467 217.875Z" fill="#A78BFA"/>
<path d="M181.213 249.86C183.842 249.86 185.973 247.728 185.973 245.099C185.973 242.47 183.842 240.339 181.213 240.339C178.583 240.339 176.452 242.47 176.452 245.099C176.452 247.728 178.583 249.86 181.213 249.86Z" fill="#DDD6FE"/>
<path d="M181.212 248.013C182.821 248.013 184.126 246.708 184.126 245.099C184.126 243.49 182.821 242.186 181.212 242.186C179.604 242.186 178.299 243.49 178.299 245.099C178.299 246.708 179.604 248.013 181.212 248.013Z" fill="#A78BFA"/>
<path d="M85.6253 252.543L66.1334 235.303C73.8005 226.588 86.3816 224.055 96.8083 229.034L85.6253 252.543Z" fill="#EDE9FE"/>
<path d="M64.7588 242.388C61.77 246.784 60.3095 251.774 60.2588 256.716C60.1598 265.146 64.1561 273.456 71.6526 278.552C83.5438 286.636 99.7319 283.549 107.815 271.658C115.899 259.767 112.813 243.579 100.922 235.495C99.8074 234.738 98.6527 234.079 97.4695 233.515L86.2865 257.024L66.7946 239.784C66.0631 240.598 65.3862 241.464 64.7588 242.388Z" fill="#DDD6FE"/>
<path d="M273.92 228.746H196.125V276.339H273.92V228.746Z" fill="#EDE9FE"/>
<path d="M273.92 228.746H196.125V232.829H273.92V228.746Z" fill="#DDD6FE"/>
<path d="M198.146 231.22C198.466 231.22 198.724 230.962 198.724 230.642C198.724 230.323 198.466 230.065 198.146 230.065C197.827 230.065 197.569 230.323 197.569 230.642C197.569 230.962 197.827 231.22 198.146 231.22Z" fill="#DDD6FE"/>
<path d="M200.785 231.22C201.104 231.22 201.363 230.962 201.363 230.642C201.363 230.323 201.104 230.065 200.785 230.065C200.466 230.065 200.207 230.323 200.207 230.642C200.207 230.962 200.466 231.22 200.785 231.22Z" fill="#DDD6FE"/>
<path d="M203.425 231.22C203.744 231.22 204.003 230.962 204.003 230.642C204.003 230.323 203.744 230.065 203.425 230.065C203.106 230.065 202.847 230.323 202.847 230.642C202.847 230.962 203.106 231.22 203.425 231.22Z" fill="#DDD6FE"/>
<path d="M312.788 213.168L317.166 205.569L314.012 203.753C314.179 202.903 314.271 202.027 314.271 201.129C314.271 200.231 314.179 199.353 314.011 198.502L317.163 196.685L312.784 189.085L309.616 190.91C308.295 189.751 306.75 188.846 305.052 188.265V184.617H296.283V188.265C294.584 188.846 293.039 189.752 291.717 190.912L288.549 189.087L284.171 196.686L287.325 198.502C287.159 199.352 287.066 200.228 287.066 201.126C287.066 202.024 287.159 202.902 287.327 203.753L284.174 205.57L288.553 213.17L291.72 211.345C293.041 212.504 294.586 213.409 296.284 213.99V217.637H305.054V213.99C306.752 213.409 308.297 212.503 309.619 211.343L312.788 213.168ZM293.837 201.127C293.837 197.36 296.902 194.295 300.669 194.295C304.438 194.295 307.502 197.36 307.502 201.127C307.502 204.895 304.436 207.96 300.669 207.96C296.902 207.96 293.837 204.895 293.837 201.127Z" fill="#DDD6FE"/>
<path d="M322.261 106.789L325.251 101.597L323.097 100.357C323.211 99.7762 323.274 99.1774 323.274 98.5643C323.274 97.9499 323.21 97.3511 323.097 96.7705L325.251 95.53L322.26 90.3388L320.096 91.5858C319.193 90.7944 318.138 90.1761 316.979 89.7791V87.2876H310.988V89.7791C309.828 90.1761 308.773 90.7944 307.869 91.5871L305.706 90.3414L302.716 95.5326L304.87 96.7732C304.755 97.3537 304.693 97.9525 304.693 98.5656C304.693 99.18 304.757 99.7788 304.87 100.359L302.716 101.6L305.706 106.79L307.869 105.543C308.773 106.334 309.827 106.954 310.987 107.35V109.841H316.977V107.35C318.137 106.953 319.193 106.334 320.096 105.541L322.261 106.789ZM309.317 98.5643C309.317 95.9908 311.41 93.8964 313.985 93.8964C316.558 93.8964 318.652 95.9908 318.652 98.5643C318.652 101.138 316.559 103.232 313.985 103.232C311.41 103.232 309.317 101.138 309.317 98.5643Z" fill="#DDD6FE"/>
<path d="M243.955 254.662L235.019 252.544L241.11 245.684L244.977 241.318C242.328 238.963 238.845 237.54 235.019 237.54C226.736 237.54 220.015 244.253 220.015 252.544C220.015 260.827 226.736 267.547 235.019 267.547C242.116 267.547 248.059 262.626 249.621 256.01L243.955 254.662Z" fill="#DDD6FE"/>
<path d="M243.955 254.662C242.998 258.709 239.368 261.726 235.019 261.726C229.95 261.726 225.837 257.614 225.837 252.544C225.837 247.475 229.949 243.362 235.019 243.362C237.364 243.362 239.491 244.236 241.11 245.684L235.019 252.544L243.955 254.662Z" fill="#DDD6FE"/>
<path d="M254.09 251.195C254.09 252.389 253.951 253.55 253.681 254.662L248.015 253.313C248.179 252.635 248.261 251.923 248.261 251.195C248.261 248.464 247.067 246.012 245.171 244.335L249.038 239.969C252.136 242.716 254.09 246.73 254.09 251.195Z" fill="#DDD6FE"/>
<path d="M120.92 79.886H75.1152V107.908H120.92V79.886Z" fill="#EDE9FE"/>
<path d="M120.92 79.886H75.1152V82.2903H120.92V79.886Z" fill="#DDD6FE"/>
<path d="M76.305 81.3427C76.4926 81.3427 76.6447 81.1906 76.6447 81.0029C76.6447 80.8153 76.4926 80.6632 76.305 80.6632C76.1173 80.6632 75.9652 80.8153 75.9652 81.0029C75.9652 81.1906 76.1173 81.3427 76.305 81.3427Z" fill="#DDD6FE"/>
<path d="M77.8593 81.3427C78.0469 81.3427 78.199 81.1906 78.199 81.0029C78.199 80.8153 78.0469 80.6632 77.8593 80.6632C77.6716 80.6632 77.5195 80.8153 77.5195 81.0029C77.5195 81.1906 77.6716 81.3427 77.8593 81.3427Z" fill="#DDD6FE"/>
<path d="M79.4135 81.3427C79.6011 81.3427 79.7532 81.1906 79.7532 81.0029C79.7532 80.8153 79.6011 80.6632 79.4135 80.6632C79.2258 80.6632 79.0737 80.8153 79.0737 81.0029C79.0737 81.1906 79.2258 81.3427 79.4135 81.3427Z" fill="#DDD6FE"/>
<g style="mix-blend-mode:soft-light">
<rect x="33" y="56" width="324" height="257" fill="#B1B1B1"/>
</g>
</g>
<defs>
<clipPath id="clip0_28_3871">
<rect width="365" height="365" fill="white"/>
</clipPath>
</defs>
</svg>
