<svg width="342" height="304" viewBox="0 0 342 304" fill="none" xmlns="http://www.w3.org/2000/svg">
<g opacity="0.7" clip-path="url(#clip0_28_4184)">
<path d="M342 0H0V342H342V0Z" fill="white"/>
<path d="M106.712 304.485H262.918C262.918 304.485 223.192 300.105 221.951 275.767C220.711 251.431 237.569 243.503 228.396 209.887C219.223 176.271 176.411 176.939 169.421 153.022C162.431 129.106 184.684 104.522 156.586 100.483C128.488 96.443 71.4883 150.881 84.9378 183.543C98.3873 216.205 147.208 209.162 142.331 227.734C137.453 246.307 98.3861 269.157 106.712 304.485Z" fill="#F9F9F9"/>
<path d="M250.708 153.033L205.792 83.9693L115.553 56.2214C115.013 59.5 105.563 116.903 105.563 124.296H105.311C105.311 116.703 115.229 56.6447 115.329 56.0385L115.352 55.897L115.49 55.9397L205.951 83.7559L205.977 83.7937L250.919 152.895L250.708 153.033Z" fill="#DDD6FE"/>
<path d="M221.951 275.767C221.928 275.321 221.924 274.892 221.913 274.456C174.974 307.915 130.702 282.839 112.977 269.681C107.109 279.825 103.6 291.284 106.712 304.485H262.918C262.918 304.485 223.192 300.104 221.951 275.767Z" fill="#EEEEEE"/>
<path d="M277.285 304.485H92.5059C92.4681 304.485 92.4364 304.453 92.4364 304.415V303.101C92.4364 303.063 92.4681 303.031 92.5059 303.031H277.285C277.323 303.031 277.354 303.063 277.354 303.101V304.415C277.354 304.453 277.323 304.485 277.285 304.485Z" fill="#24243D"/>
<path d="M119.557 245.476C128.593 240.259 132.908 230.815 129.194 224.382C125.48 217.95 115.144 216.964 106.108 222.181C97.0715 227.399 92.7571 236.843 96.4711 243.275C100.185 249.708 110.521 250.693 119.557 245.476Z" fill="#EDE9FE"/>
<path d="M173.372 106.726C173.372 106.726 171.342 101.063 165.679 101.063C160.016 101.063 158.097 109.238 157.13 117.092C155.848 127.511 151.467 121.794 151.467 121.794C151.467 121.794 151.68 129.066 157.13 130.666C162.579 132.266 164.824 126.71 164.824 126.71C164.824 126.71 168.91 129.259 171.782 123.71C174.655 118.161 173.372 106.726 173.372 106.726Z" fill="#471A20"/>
<path d="M220.397 123.452L224.382 116.343C224.382 116.343 224.11 110.251 224.538 108.575C224.966 106.899 227.978 102.199 229.567 101.841C231.156 101.484 232.414 102.382 232.414 102.382L231.013 106.29C231.013 106.29 233.689 107.236 234.276 108.775C234.863 110.315 234.42 112.647 233.896 113.097C233.371 113.547 232.176 114.637 232.176 114.637L229.266 117.819L226.214 126.017L220.397 123.452Z" fill="#A45F3F"/>
<path d="M177.263 270.093C177.263 270.093 175.077 276.163 173.783 277.943C172.488 279.724 170.789 281.585 171.598 282.961C172.408 284.337 179.529 289.355 182.847 289.274C186.164 289.194 187.544 289.517 188.028 288.546C188.512 287.575 183.818 285.309 183.009 283.65C182.199 281.991 179.934 280.453 180.5 278.592C181.066 276.731 183.414 274.222 183.414 274.222L177.263 270.093Z" fill="#A45F3F"/>
<path d="M182.652 275.1H175.266L176.781 271.388L182.652 275.1Z" fill="#8C4F37"/>
<path d="M176.94 221.617L191.426 236.994L175.728 271.211L192.817 280.673C192.817 280.673 215.138 236.267 213.6 228.983C212.062 221.699 198.143 218.381 198.143 218.381L176.94 221.617Z" fill="#1B1B2D"/>
<path d="M183.703 236.426H154.927V239.583H183.703V236.426Z" fill="#1B1B2D"/>
<path d="M188.809 258.904L185.679 266.411L188.639 281.607C188.639 281.607 190.292 283.761 191.425 282.871C192.558 281.98 191.587 281.261 191.425 279.076C191.263 276.891 191.102 274.383 191.425 272.521C191.748 270.659 191.046 268.636 191.519 267.665C191.992 266.694 194.805 262.567 194.805 262.567L188.809 258.904Z" fill="#A45F3F"/>
<path d="M187.46 282.071H152.579V285.227H187.46V282.071Z" fill="#1B1B2D"/>
<path d="M155.331 228.334L148.055 302.744C147.964 303.679 148.698 304.489 149.637 304.489C150.439 304.489 151.116 303.891 151.214 303.096L160.51 228.335H155.331V228.334Z" fill="#24243D"/>
<path d="M184.143 228.334L191.419 302.744C191.51 303.679 190.776 304.489 189.837 304.489C189.034 304.489 188.359 303.891 188.26 303.096L178.965 228.335H184.143V228.334Z" fill="#24243D"/>
<path d="M186.624 228.981H152.741V220.689C152.741 220.503 152.893 220.352 153.078 220.352H186.288C186.473 220.352 186.624 220.503 186.624 220.689V228.981Z" fill="#AA614F"/>
<path d="M183.051 220.352H159.461L171.333 228.981H186.623V223.925C186.624 221.951 185.024 220.352 183.051 220.352Z" fill="#8C4E42"/>
<path d="M192.637 123.169L188.951 120.306L187.213 125.237L184.702 132.327C184.702 132.327 175.834 133.081 170.471 128.38C169.928 127.899 169.446 127.356 169.034 126.784C167.628 124.865 166.925 122.657 166.745 121.692C166.232 119.071 165.639 105.442 177.461 103.443V103.433C177.461 103.433 189.704 94.4147 195.347 104.216C200.993 114.03 192.637 123.169 192.637 123.169Z" fill="#471A20"/>
<path d="M187.215 125.239L184.703 132.329C184.703 132.329 175.835 133.082 170.472 128.382C169.929 127.9 169.447 127.357 169.035 126.785C169.035 126.785 180.344 128.754 185.828 117.978L187.215 125.239Z" fill="#301116"/>
<path d="M189.834 108.119C189.834 108.119 194.367 108.302 196.524 114.998C196.524 114.998 200.571 117.13 200.301 118.889C200.085 120.292 198.789 120.615 198.789 120.615C198.789 120.615 200.007 125.887 197.71 129.139C195.768 131.891 190.481 130.865 190.481 130.865L187.135 141.008L174.321 139.347L182.496 130.648C182.496 130.648 186.854 128.705 185.829 124.185C185.829 124.185 183.575 123.526 183.035 120.288C182.496 117.051 186.845 115.932 187.707 119.601C187.71 119.606 192.662 115.923 189.834 108.119Z" fill="#A45F3F"/>
<path d="M193.022 117.378C193.2 118.288 193.984 118.901 194.773 118.746C195.561 118.593 196.056 117.729 195.878 116.819C195.7 115.909 194.916 115.296 194.127 115.451C193.337 115.604 192.843 116.468 193.022 117.378Z" fill="#24243D"/>
<path d="M196.939 124.297C196.041 124.297 194.98 123.919 194.392 122.582C194.32 122.417 194.395 122.227 194.558 122.156C194.724 122.083 194.913 122.159 194.985 122.322C195.823 124.23 197.731 123.527 197.811 123.498C197.976 123.432 198.165 123.518 198.228 123.685C198.292 123.852 198.209 124.038 198.042 124.102C197.758 124.21 197.367 124.297 196.939 124.297Z" fill="#8C4F37"/>
<path d="M185.83 125.214C186.396 125.214 186.855 124.756 186.855 124.19C186.855 123.624 186.396 123.165 185.83 123.165C185.264 123.165 184.806 123.624 184.806 124.19C184.806 124.756 185.264 125.214 185.83 125.214Z" fill="white"/>
<path d="M206.306 270.252L187.224 259.897L199.487 224.956C199.487 224.956 167.981 228.633 160.861 219.242C158.249 215.798 157.185 212.483 156.883 209.662C156.672 207.643 156.843 205.876 157.125 204.5C162.981 205.805 183.287 199.156 188.189 200L189.394 200.262L189.525 200.292L190.187 200.442C197.016 202.089 221.351 208.568 222.637 217.897C223.421 223.561 206.306 270.252 206.306 270.252Z" fill="#24243D"/>
<path d="M189.394 200.262C185.728 202.14 167.108 211.339 156.885 209.662C156.674 207.643 156.845 205.876 157.126 204.5C162.982 205.805 183.289 199.156 188.19 200L189.394 200.262Z" fill="#1B1B2D"/>
<path d="M199.492 224.961L209.473 223.398L197.366 231.02L199.492 224.961Z" fill="#1B1B2D"/>
<path d="M190.482 130.867L186.408 129.033L189.389 134.181L190.482 130.867Z" fill="#8C4F37"/>
<path d="M192.113 113.388C191.991 113.388 191.874 113.319 191.819 113.2C191.744 113.038 191.815 112.847 191.977 112.772L194.314 111.693C194.477 111.618 194.669 111.688 194.745 111.851C194.819 112.014 194.749 112.205 194.586 112.279L192.249 113.359C192.204 113.377 192.158 113.388 192.113 113.388Z" fill="#8C4F37"/>
<path d="M226.449 163.901L231.576 162.117C231.576 162.117 232.253 161.372 234.942 160.269C237.633 159.167 239.431 157.132 239.431 157.132L243.909 159.09C243.909 159.09 240.783 163.727 237.996 165.321C235.209 166.915 233.72 166.433 233.72 166.433L229.54 169.068L226.449 163.901Z" fill="#A45F3F"/>
<path d="M174.94 148.915C174.94 148.915 172.769 152.301 176.068 160.116C179.367 167.93 192.912 186.336 197.512 186.683C202.114 187.03 231.292 168.939 231.292 168.939L229.789 162.615L200.347 171.766L186.645 147.005L174.94 148.915Z" fill="#CCCCCC"/>
<path d="M197.006 158.602L197.016 158.612C197.026 158.621 199.899 161.047 199.055 166.043C198.261 170.739 193.341 173.434 193.341 173.434L191.985 180.776V180.786C191.975 185.817 192.758 192.355 192.096 196.393C191.885 197.698 191.524 198.743 190.941 199.396H190.95L190.298 200.46L190.187 200.441L189.525 200.291L188.189 199.999C183.288 199.155 162.981 205.804 157.125 204.499C155.517 204.138 155.006 203.183 156.181 201.315C158.782 197.198 160.54 192.186 161.665 188.018C162.879 183.549 163.382 180.044 163.432 179.652V179.643C163.462 173.075 163.361 164.427 163.603 159.135C163.603 159.125 163.593 159.125 163.593 159.125C164.115 149.645 165.28 139.802 175.213 137.814C179.843 137.131 189.976 142.092 189.976 142.092L200.31 141.018C200.31 141.018 206.356 137.583 210.806 133.726C215.586 129.568 223.39 117.427 223.39 117.427L228.874 118.902C228.874 118.901 217.615 154.987 197.006 158.602Z" fill="#D5D5D5"/>
<path d="M198.835 161.524L187.888 158.602H197.007L197.138 158.732L197.268 158.873C197.328 158.943 197.409 159.023 197.489 159.124C197.509 159.154 197.539 159.195 197.57 159.224C197.629 159.304 197.69 159.385 197.76 159.475C197.8 159.535 197.84 159.586 197.871 159.636C197.951 159.747 198.021 159.857 198.092 159.968C198.122 160.018 198.151 160.068 198.182 160.119C198.282 160.28 198.372 160.461 198.473 160.651C198.504 160.711 198.523 160.781 198.554 160.841C198.634 160.992 198.694 161.163 198.765 161.333C198.785 161.394 198.815 161.454 198.835 161.524Z" fill="#B6B6B6"/>
<path d="M190.941 199.398H190.95L190.298 200.463L190.187 200.443L189.525 200.293L188.189 200.002C183.288 199.158 162.981 205.806 157.125 204.501C155.517 204.14 155.006 203.185 156.181 201.318C158.782 197.2 160.54 192.188 161.665 188.021C164.095 194.026 171.627 199.349 192.096 196.396C191.885 197.7 191.523 198.744 190.941 199.398Z" fill="#B6B6B6"/>
<path d="M194.15 263.538L192.263 266.411L188.045 260.331L194.15 263.538Z" fill="#8C4F37"/>
<path d="M199.271 213.221L199.095 213.129L144.389 184.431L144.354 184.376L105.104 124.28L139.989 95.4209L140.054 95.4087L206.1 83.6046L206.16 83.6229L246.901 96.7882L251.07 153.956L251.002 154.034L199.271 213.221ZM144.738 184.047L199.153 212.593L250.555 153.784L246.425 97.1639L206.066 84.1218L140.209 95.8917L105.771 124.38L144.738 184.047Z" fill="#DDD6FE"/>
<path d="M186.417 263.824L186.349 263.805L115.828 243.382L115.776 243.313L72.5116 183.579L72.5177 183.488L76.8488 119.11L76.8805 119.057L115.296 55.836L115.403 55.8141L213.876 36.0125L213.963 36.0747L256.76 65.9204L294.888 116.6L294.886 116.686L293.344 191.208L293.289 191.275L247.9 246.642L247.824 246.664L186.417 263.824ZM116.132 242.948L186.419 263.302L247.615 246.2L292.848 191.022L294.384 116.762L256.383 66.2546L213.765 36.5479L115.61 56.2849L77.3416 119.266L73.0251 183.431L116.132 242.948Z" fill="#DDD6FE"/>
<path d="M199.342 212.706L199.056 213.12L247.599 246.632L247.884 246.218L199.342 212.706Z" fill="#DDD6FE"/>
<path d="M186.544 262.848L134.702 220.414L101.213 162.923L72.8409 183.335L72.6934 183.131L101.086 162.706L75.8853 119.438L76.1463 119.48L105.575 124.192L105.561 124.31L101.383 162.713L134.908 220.27L186.704 262.656L186.544 262.848ZM76.3683 119.77L101.169 162.348L105.299 124.402L76.3683 119.77Z" fill="#DDD6FE"/>
<path d="M72.7677 188.018C75.411 188.018 77.5538 185.876 77.5538 183.232C77.5538 180.589 75.411 178.446 72.7677 178.446C70.1245 178.446 67.9817 180.589 67.9817 183.232C67.9817 185.876 70.1245 188.018 72.7677 188.018Z" fill="#EDE9FE"/>
<path d="M72.7677 186.161C74.385 186.161 75.6962 184.85 75.6962 183.232C75.6962 181.615 74.385 180.304 72.7677 180.304C71.1504 180.304 69.8392 181.615 69.8392 183.232C69.8392 184.85 71.1504 186.161 72.7677 186.161Z" fill="#C4B5FD"/>
<path d="M144.727 191.746C148.962 191.746 152.396 188.312 152.396 184.076C152.396 179.841 148.962 176.407 144.727 176.407C140.491 176.407 137.057 179.841 137.057 184.076C137.057 188.312 140.491 191.746 144.727 191.746Z" fill="#EDE9FE"/>
<path d="M144.727 188.77C147.319 188.77 149.42 186.668 149.42 184.076C149.42 181.484 147.319 179.383 144.727 179.383C142.135 179.383 140.033 181.484 140.033 184.076C140.033 186.668 142.135 188.77 144.727 188.77Z" fill="#C4B5FD"/>
<path d="M198.835 215.776C200.42 215.776 201.704 214.491 201.704 212.906C201.704 211.321 200.42 210.036 198.835 210.036C197.249 210.036 195.965 211.321 195.965 212.906C195.965 214.491 197.249 215.776 198.835 215.776Z" fill="#EDE9FE"/>
<path d="M198.834 214.662C199.804 214.662 200.591 213.876 200.591 212.906C200.591 211.936 199.804 211.15 198.834 211.15C197.864 211.15 197.078 211.936 197.078 212.906C197.078 213.876 197.864 214.662 198.834 214.662Z" fill="#C4B5FD"/>
<path d="M213.851 39.1763C215.451 39.1763 216.748 37.8794 216.748 36.2796C216.748 34.6797 215.451 33.3828 213.851 33.3828C212.251 33.3828 210.954 34.6797 210.954 36.2796C210.954 37.8794 212.251 39.1763 213.851 39.1763Z" fill="#EDE9FE"/>
<path d="M213.851 38.0518C214.83 38.0518 215.624 37.2583 215.624 36.2796C215.624 35.3008 214.83 34.5074 213.851 34.5074C212.873 34.5074 212.079 35.3008 212.079 36.2796C212.079 37.2583 212.873 38.0518 213.851 38.0518Z" fill="#C4B5FD"/>
<path d="M186.71 262.844L186.538 262.659L222.602 228.985L292.264 190.974L292.384 191.193L222.737 229.199L186.71 262.844Z" fill="#DDD6FE"/>
<path d="M292.323 195.507C294.767 195.507 296.747 193.527 296.747 191.083C296.747 188.64 294.767 186.66 292.323 186.66C289.88 186.66 287.9 188.64 287.9 191.083C287.9 193.527 289.88 195.507 292.323 195.507Z" fill="#EDE9FE"/>
<path d="M292.324 193.79C293.818 193.79 295.03 192.578 295.03 191.083C295.03 189.589 293.818 188.377 292.324 188.377C290.829 188.377 289.617 189.589 289.617 191.083C289.617 192.578 290.829 193.79 292.324 193.79Z" fill="#C4B5FD"/>
<path d="M186.624 268.992C190.071 268.992 192.865 266.198 192.865 262.751C192.865 259.304 190.071 256.51 186.624 256.51C183.177 256.51 180.383 259.304 180.383 262.751C180.383 266.198 183.177 268.992 186.624 268.992Z" fill="#EDE9FE"/>
<path d="M186.624 266.57C188.733 266.57 190.443 264.86 190.443 262.751C190.443 260.642 188.733 258.932 186.624 258.932C184.515 258.932 182.805 260.642 182.805 262.751C182.805 264.86 184.515 266.57 186.624 266.57Z" fill="#C4B5FD"/>
<path d="M222.781 229.139L222.545 229.052L250.708 152.889L250.733 152.867L294.396 116.717L246.616 97.0919L246.711 96.8602L294.879 116.645L294.718 116.778L250.919 153.04L222.781 229.139Z" fill="#DDD6FE"/>
<path d="M246.132 246.577L245.985 246.543L134.712 220.457L134.691 220.388L105.318 124.332L105.558 124.26L134.911 220.246L245.896 246.263L250.688 152.957L250.938 152.972L246.132 246.577Z" fill="#DDD6FE"/>
<path d="M101.37 162.712L101.123 162.757L115.848 243.178L116.095 243.133L101.37 162.712Z" fill="#DDD6FE"/>
<path d="M75.7389 118.139L75.656 117.901L140.058 95.538L209.449 61.5258L209.485 61.5295L256.572 65.946L256.549 66.196L209.497 61.7832L140.154 95.7685L75.7389 118.139Z" fill="#DDD6FE"/>
<path d="M245.929 96.9846L207.669 61.7771L115.446 56.1861L115.46 55.9348L207.772 61.532L207.805 61.5624L246.099 96.8004L245.929 96.9846Z" fill="#DDD6FE"/>
<path d="M101.33 163.79C101.998 163.79 102.539 163.249 102.539 162.582C102.539 161.914 101.998 161.373 101.33 161.373C100.663 161.373 100.122 161.914 100.122 162.582C100.122 163.249 100.663 163.79 101.33 163.79Z" fill="#EDE9FE"/>
<path d="M134.666 221.561C135.333 221.561 135.874 221.02 135.874 220.352C135.874 219.685 135.333 219.143 134.666 219.143C133.998 219.143 133.457 219.685 133.457 220.352C133.457 221.02 133.998 221.561 134.666 221.561Z" fill="#EDE9FE"/>
<path d="M247.501 217.559C248.486 217.559 249.284 216.761 249.284 215.776C249.284 214.791 248.486 213.993 247.501 213.993C246.516 213.993 245.718 214.791 245.718 215.776C245.718 216.761 246.516 217.559 247.501 217.559Z" fill="#EDE9FE"/>
<path d="M140.099 97.9115C141.345 97.9115 142.355 96.9018 142.355 95.6563C142.355 94.4108 141.345 93.4011 140.099 93.4011C138.854 93.4011 137.844 94.4108 137.844 95.6563C137.844 96.9018 138.854 97.9115 140.099 97.9115Z" fill="#EDE9FE"/>
<path d="M205.872 86.1184C207.118 86.1184 208.127 85.1087 208.127 83.8632C208.127 82.6177 207.118 81.608 205.872 81.608C204.627 81.608 203.617 82.6177 203.617 83.8632C203.617 85.1087 204.627 86.1184 205.872 86.1184Z" fill="#EDE9FE"/>
<path d="M208.699 65.9936C211.096 65.9936 213.039 64.0506 213.039 61.6539C213.039 59.2572 211.096 57.3143 208.699 57.3143C206.303 57.3143 204.36 59.2572 204.36 61.6539C204.36 64.0506 206.303 65.9936 208.699 65.9936Z" fill="#EDE9FE"/>
<path d="M212.756 239.72C213.453 239.72 214.017 239.155 214.017 238.458C214.017 237.762 213.453 237.197 212.756 237.197C212.06 237.197 211.495 237.762 211.495 238.458C211.495 239.155 212.06 239.72 212.756 239.72Z" fill="#EDE9FE"/>
<path d="M222.663 230.232C223.36 230.232 223.925 229.667 223.925 228.97C223.925 228.274 223.36 227.709 222.663 227.709C221.967 227.709 221.402 228.274 221.402 228.97C221.402 229.667 221.967 230.232 222.663 230.232Z" fill="#EDE9FE"/>
<path d="M246.013 104.562C250.249 104.562 253.683 101.129 253.683 96.8931C253.683 92.6574 250.249 89.2237 246.013 89.2237C241.777 89.2237 238.344 92.6574 238.344 96.8931C238.344 101.129 241.777 104.562 246.013 104.562Z" fill="#EDE9FE"/>
<path d="M246.013 101.586C248.605 101.586 250.707 99.4852 250.707 96.8931C250.707 94.301 248.605 92.1997 246.013 92.1997C243.421 92.1997 241.32 94.301 241.32 96.8931C241.32 99.4852 243.421 101.586 246.013 101.586Z" fill="#C4B5FD"/>
<path d="M250.813 155.834C252.398 155.834 253.683 154.55 253.683 152.964C253.683 151.379 252.398 150.095 250.813 150.095C249.228 150.095 247.943 151.379 247.943 152.964C247.943 154.55 249.228 155.834 250.813 155.834Z" fill="#EDE9FE"/>
<path d="M250.813 154.721C251.783 154.721 252.569 153.935 252.569 152.964C252.569 151.994 251.783 151.208 250.813 151.208C249.843 151.208 249.056 151.994 249.056 152.964C249.056 153.935 249.843 154.721 250.813 154.721Z" fill="#C4B5FD"/>
<path d="M294.637 120.704C297.229 120.704 299.331 118.603 299.331 116.01C299.331 113.418 297.229 111.317 294.637 111.317C292.045 111.317 289.944 113.418 289.944 116.01C289.944 118.603 292.045 120.704 294.637 120.704Z" fill="#EDE9FE"/>
<path d="M294.637 118.883C296.223 118.883 297.51 117.597 297.51 116.01C297.51 114.424 296.223 113.138 294.637 113.138C293.051 113.138 291.765 114.424 291.765 116.01C291.765 117.597 293.051 118.883 294.637 118.883Z" fill="#C4B5FD"/>
<path d="M246.013 250.266C248.138 250.266 249.86 248.544 249.86 246.419C249.86 244.295 248.138 242.572 246.013 242.572C243.889 242.572 242.166 244.295 242.166 246.419C242.166 248.544 243.889 250.266 246.013 250.266Z" fill="#EDE9FE"/>
<path d="M246.013 248.773C247.313 248.773 248.367 247.719 248.367 246.419C248.367 245.119 247.313 244.065 246.013 244.065C244.713 244.065 243.659 245.119 243.659 246.419C243.659 247.719 244.713 248.773 246.013 248.773Z" fill="#C4B5FD"/>
<path d="M115.98 245.478C117.258 245.478 118.294 244.442 118.294 243.164C118.294 241.886 117.258 240.85 115.98 240.85C114.702 240.85 113.666 241.886 113.666 243.164C113.666 244.442 114.702 245.478 115.98 245.478Z" fill="#EDE9FE"/>
<path d="M115.98 244.58C116.762 244.58 117.396 243.946 117.396 243.164C117.396 242.382 116.762 241.748 115.98 241.748C115.198 241.748 114.564 242.382 114.564 243.164C114.564 243.946 115.198 244.58 115.98 244.58Z" fill="#C4B5FD"/>
<path d="M105.437 131.966C109.673 131.966 113.106 128.533 113.106 124.297C113.106 120.061 109.673 116.628 105.437 116.628C101.201 116.628 97.7677 120.061 97.7677 124.297C97.7677 128.533 101.201 131.966 105.437 131.966Z" fill="#EDE9FE"/>
<path d="M105.437 128.99C108.029 128.99 110.13 126.889 110.13 124.297C110.13 121.705 108.029 119.604 105.437 119.604C102.845 119.604 100.744 121.705 100.744 124.297C100.744 126.889 102.845 128.99 105.437 128.99Z" fill="#C4B5FD"/>
<path d="M76.1267 124.297C78.7188 124.297 80.8201 122.196 80.8201 119.604C80.8201 117.012 78.7188 114.91 76.1267 114.91C73.5346 114.91 71.4333 117.012 71.4333 119.604C71.4333 122.196 73.5346 124.297 76.1267 124.297Z" fill="#EDE9FE"/>
<path d="M76.1268 122.476C77.7131 122.476 78.9991 121.19 78.9991 119.604C78.9991 118.017 77.7131 116.731 76.1268 116.731C74.5404 116.731 73.2544 118.017 73.2544 119.604C73.2544 121.19 74.5404 122.476 76.1268 122.476Z" fill="#C4B5FD"/>
<path d="M115.453 61.6539C118.542 61.6539 121.047 59.1496 121.047 56.0604C121.047 52.9712 118.542 50.4669 115.453 50.4669C112.364 50.4669 109.86 52.9712 109.86 56.0604C109.86 59.1496 112.364 61.6539 115.453 61.6539Z" fill="#EDE9FE"/>
<path d="M115.453 59.4841C117.344 59.4841 118.877 57.9513 118.877 56.0604C118.877 54.1696 117.344 52.6368 115.453 52.6368C113.562 52.6368 112.029 54.1696 112.029 56.0604C112.029 57.9513 113.562 59.4841 115.453 59.4841Z" fill="#C4B5FD"/>
<path d="M317.259 147.728H281.402V166.532H317.259V147.728Z" fill="#DDD6FE"/>
<path d="M313.883 152.464H285.554C285.347 152.464 285.177 152.296 285.177 152.088C285.177 151.88 285.346 151.711 285.554 151.711H313.883C314.09 151.711 314.26 151.879 314.26 152.088C314.26 152.296 314.091 152.464 313.883 152.464Z" fill="#EDE9FE"/>
<path d="M313.883 155.01H285.554C285.347 155.01 285.177 154.842 285.177 154.633C285.177 154.426 285.346 154.256 285.554 154.256H313.883C314.09 154.256 314.26 154.424 314.26 154.633C314.26 154.84 314.091 155.01 313.883 155.01Z" fill="#EDE9FE"/>
<path d="M313.883 157.555H285.554C285.347 157.555 285.177 157.387 285.177 157.179C285.177 156.97 285.346 156.802 285.554 156.802H313.883C314.09 156.802 314.26 156.97 314.26 157.179C314.26 157.387 314.091 157.555 313.883 157.555Z" fill="#EDE9FE"/>
<path d="M313.883 160.101H285.554C285.347 160.101 285.177 159.933 285.177 159.724C285.177 159.517 285.346 159.347 285.554 159.347H313.883C314.09 159.347 314.26 159.515 314.26 159.724C314.26 159.933 314.091 160.101 313.883 160.101Z" fill="#EDE9FE"/>
<path d="M313.883 162.646H285.554C285.347 162.646 285.177 162.478 285.177 162.27C285.177 162.062 285.346 161.893 285.554 161.893H313.883C314.09 161.893 314.26 162.061 314.26 162.27C314.26 162.477 314.091 162.646 313.883 162.646Z" fill="#EDE9FE"/>
<path d="M267.117 46.1517V51.0317C275.37 51.0317 282.077 57.7448 282.077 65.9911H286.957C286.957 55.0542 278.059 46.1517 267.117 46.1517Z" fill="#EDE9FE"/>
<path d="M286.957 65.9911C286.957 76.9329 278.059 85.8366 267.117 85.8366C256.181 85.8366 247.278 76.9329 247.278 65.9911C247.278 55.0542 256.182 46.1517 267.117 46.1517V51.0317C258.87 51.0317 252.158 57.7448 252.158 65.9911C252.158 74.2435 258.871 80.9567 267.117 80.9567C275.37 80.9567 282.077 74.2435 282.077 65.9911H286.957Z" fill="#DDD6FE"/>
<path d="M95.0246 209.865H91.3228C91.3228 216.126 86.2306 221.213 79.9749 221.213V224.915C88.2712 224.915 95.0246 218.165 95.0246 209.865Z" fill="#DDD6FE"/>
<path d="M79.9749 224.915C71.6749 224.915 64.9203 218.165 64.9203 209.865C64.9203 201.569 71.6737 194.816 79.9749 194.816C88.2712 194.816 95.0246 201.569 95.0246 209.865H91.3228C91.3228 203.61 86.2306 198.517 79.9749 198.517C73.7142 198.517 68.622 203.61 68.622 209.865C68.622 216.126 73.7142 221.213 79.9749 221.213V224.915Z" fill="#C4B5FD"/>
<path d="M275.47 60.9941H258.765V65.3532H275.47V60.9941Z" fill="#C4B5FD"/>
<path d="M142.215 142.391L144.51 141.809C146.886 141.207 148.735 139.358 149.337 136.983L149.919 134.689L150.501 136.983C151.103 139.358 152.952 141.208 155.328 141.809L157.621 142.391L155.328 142.973C152.952 143.574 151.103 145.424 150.501 147.8L149.919 150.095L149.337 147.8C148.733 145.424 146.884 143.574 144.51 142.973L142.215 142.391Z" fill="#EDE9FE"/>
<path d="M126.667 130.399L127.794 130.114C128.96 129.819 129.869 128.91 130.165 127.744L130.45 126.618L130.736 127.744C131.032 128.91 131.94 129.819 133.106 130.114L134.231 130.399L133.106 130.685C131.94 130.98 131.031 131.888 130.736 133.054L130.45 134.181L130.165 133.056C129.869 131.89 128.961 130.981 127.794 130.686L126.667 130.399Z" fill="#EDE9FE"/>
<path d="M140.033 163.79L141.16 163.505C142.326 163.21 143.235 162.301 143.532 161.135L143.817 160.009L144.102 161.135C144.399 162.301 145.306 163.21 146.472 163.505L147.598 163.79L146.472 164.076C145.306 164.371 144.397 165.28 144.102 166.446L143.817 167.573L143.532 166.447C143.235 165.281 142.328 164.372 141.16 164.077L140.033 163.79Z" fill="#EDE9FE"/>
</g>
<defs>
<clipPath id="clip0_28_4184">
<rect width="342" height="342" fill="white"/>
</clipPath>
</defs>
</svg>
